# xmcd CD database file generated by OrangeCD 5.2
#
# Track frame offsets:
#	182
#	14800
#	27100
#	42120
#	55615
#	70622
#	86887
#	104632
#	120760
#	138917
#	156580
#	174867
#
# Disc length: 2540 seconds
#
# Revision: 19
# Processed by: cddbd v1.5.1PL2 Copyright (c) Steve Scherf et al.
# Submitted via: OrangeCD 5.2
#
DISCID=9609ea0c
DTITLE=Rick Springfield - Rick Springfield's Greatest Hits
DYEAR=1989
DGENRE=Rock
TTITLE0=Jessie's Girl
TTITLE1=I've Done Everything For You
TTITLE2=Love Is Alright Tonight
TTITLE3=Don't Talk To Strangers
TTITLE4=What Kind Of Fool Am I
TTITLE5=Affair Of The Heart
TTITLE6=Human Touch
TTITLE7=Love Somebody
TTITLE8=Bop 'Til You Drop
TTITLE9=Celebrate Youth
TTITLE10=State Of The Heart
TTITLE11=Rock Of Life
EXTD=
EXTT0=
EXTT1=
EXTT2=
EXTT3=
EXTT4=
EXTT5=
EXTT6=
EXTT7=
EXTT8=
EXTT9=
EXTT10=
EXTT11=
PLAYORDER=
